<svg width="91" height="25" viewBox="0 0 91 25" fill="none" xmlns="http://www.w3.org/2000/svg">
<path fill-rule="evenodd" clip-rule="evenodd" d="M5.56412 0C2.49114 0 0 2.47965 0 5.53846V18.4615C0 21.5203 2.49114 24 5.56412 24H18.5471C21.62 24 24.1112 21.5203 24.1112 18.4615V5.53846C24.1112 2.47965 21.62 0 18.5471 0H5.56412ZM10.2781 9.14567V19.846H13.3837V9.14567H15.4615L17.3434 6.27674H6.3184V9.14567H10.2781Z" fill="#1A8FE3"/>
<path d="M32.9529 19.8459V6.21576H35.8653V19.8459H32.9529ZM28.4885 7.63822V4.98438H40.3084L38.5385 7.63822H28.4885Z" fill="#1A8FE3"/>
<path d="M46.8896 19.8459L46.8258 14.4745C46.8258 13.8376 46.755 13.2998 46.6132 12.861C46.4857 12.4081 46.2731 12.0684 45.9755 11.8419C45.692 11.6013 45.3094 11.481 44.8275 11.481C44.4023 11.481 44.0197 11.573 43.6795 11.757C43.3394 11.941 43.0489 12.2382 42.8079 12.6487L40.2994 11.7995C40.4978 11.3465 40.7813 10.9078 41.1498 10.4831C41.5324 10.0444 42.0285 9.68345 42.6379 9.40038C43.2615 9.1173 44.0126 8.97576 44.8913 8.97576C45.9542 8.97576 46.84 9.16684 47.5486 9.54899C48.2573 9.93114 48.7887 10.4973 49.143 11.2475C49.4973 11.9835 49.6745 12.8893 49.6745 13.965V19.8459H46.8896ZM44.0197 20.1007C42.7442 20.1007 41.7521 19.8176 41.0435 19.2515C40.349 18.6853 40.0018 17.8856 40.0018 16.8524C40.0018 15.7201 40.3774 14.8708 41.1285 14.3047C41.8938 13.7244 42.9638 13.4342 44.3386 13.4342H47.3998L47.4423 15.5148H45.3165C44.3953 15.5148 43.7575 15.6281 43.4032 15.8545C43.0489 16.0668 42.8717 16.3711 42.8717 16.7675C42.8717 17.0788 43.0134 17.3265 43.2969 17.5105C43.5803 17.6804 43.9772 17.7653 44.4874 17.7653C44.9409 17.7653 45.3377 17.6591 45.6779 17.4468C46.0322 17.2204 46.3085 16.9373 46.507 16.5976C46.7054 16.2438 46.8046 15.8828 46.8046 15.5148H47.5912C47.5912 16.9585 47.3077 18.0838 46.7408 18.8905C46.1881 19.6973 45.281 20.1007 44.0197 20.1007Z" fill="#1A8FE3"/>
<path d="M50.8653 19.8459L55.2234 13.7739L58.2634 9.23053H61.5797L57.3492 15.1539L54.2242 19.8459H50.8653ZM58.4972 19.8459L55.4147 15.1539L51.1417 9.23053H54.458L57.498 13.7739L61.8348 19.8459H58.4972Z" fill="#1A8FE3"/>
<path d="M63.3278 24.0921V9.23053H65.9638L66.1339 11.1838V24.0921H63.3278ZM69.344 20.1007C68.4511 20.1007 67.6929 19.8742 67.0693 19.4213C66.4599 18.9684 65.9922 18.3244 65.6662 17.4893C65.3402 16.6542 65.1773 15.6705 65.1773 14.5382C65.1773 13.3918 65.3402 12.4081 65.6662 11.5871C65.9922 10.7521 66.4599 10.1081 67.0693 9.65514C67.6929 9.20222 68.4511 8.97576 69.344 8.97576C70.3219 8.97576 71.1651 9.20222 71.8738 9.65514C72.5966 10.1081 73.1564 10.7521 73.5532 11.5871C73.95 12.4081 74.1484 13.3918 74.1484 14.5382C74.1484 15.6705 73.95 16.6542 73.5532 17.4893C73.1564 18.3244 72.5966 18.9684 71.8738 19.4213C71.1651 19.8742 70.3219 20.1007 69.344 20.1007ZM68.6212 17.5318C69.1314 17.5318 69.5778 17.4044 69.9605 17.1496C70.3573 16.8948 70.6691 16.541 70.8959 16.0881C71.1226 15.6351 71.236 15.1185 71.236 14.5382C71.236 13.9579 71.1226 13.4413 70.8959 12.9884C70.6833 12.5355 70.3786 12.1887 69.9817 11.9481C69.5991 11.6933 69.1526 11.5659 68.6424 11.5659C68.1606 11.5659 67.7283 11.6933 67.3456 11.9481C66.963 12.2028 66.6654 12.5567 66.4528 13.0096C66.2402 13.4484 66.1339 13.9579 66.1339 14.5382C66.1339 15.1185 66.2402 15.6351 66.4528 16.0881C66.6654 16.541 66.9559 16.8948 67.3244 17.1496C67.7071 17.4044 68.1393 17.5318 68.6212 17.5318Z" fill="#1A8FE3"/>
<path d="M82.4731 19.8459L82.4093 14.4745C82.4093 13.8376 82.3384 13.2998 82.1967 12.861C82.0691 12.4081 81.8566 12.0684 81.5589 11.8419C81.2755 11.6013 80.8928 11.481 80.411 11.481C79.9858 11.481 79.6031 11.573 79.263 11.757C78.9229 11.941 78.6323 12.2382 78.3914 12.6487L75.8829 11.7995C76.0813 11.3465 76.3647 10.9078 76.7332 10.4831C77.1159 10.0444 77.6119 9.68345 78.2213 9.40038C78.8449 9.1173 79.596 8.97576 80.4747 8.97576C81.5377 8.97576 82.4235 9.16684 83.1321 9.54899C83.8407 9.93114 84.3722 10.4973 84.7265 11.2475C85.0808 11.9835 85.258 12.8893 85.258 13.965V19.8459H82.4731ZM79.6031 20.1007C78.3276 20.1007 77.3355 19.8176 76.6269 19.2515C75.9325 18.6853 75.5852 17.8856 75.5852 16.8524C75.5852 15.7201 75.9608 14.8708 76.7119 14.3047C77.4773 13.7244 78.5473 13.4342 79.922 13.4342H82.9833L83.0258 15.5148H80.8999C79.9787 15.5148 79.3409 15.6281 78.9866 15.8545C78.6323 16.0668 78.4552 16.3711 78.4552 16.7675C78.4552 17.0788 78.5969 17.3265 78.8803 17.5105C79.1638 17.6804 79.5606 17.7653 80.0708 17.7653C80.5243 17.7653 80.9212 17.6591 81.2613 17.4468C81.6156 17.2204 81.892 16.9373 82.0904 16.5976C82.2888 16.2438 82.388 15.8828 82.388 15.5148H83.1746C83.1746 16.9585 82.8912 18.0838 82.3243 18.8905C81.7715 19.6973 80.8645 20.1007 79.6031 20.1007Z" fill="#1A8FE3"/>
<path d="M87.4904 19.8459L87.5117 4.98438H90.3179L90.2966 19.8459H87.4904Z" fill="#1A8FE3"/>
</svg>
